<svg xmlns="http://www.w3.org/2000/svg" viewBox="0 0 1200 260"><defs><style>.a{fill:#9dcd52;}</style></defs><path class="a" d="M1085.7,69c-24.29,0-34-16.4-34-16.4s-16.24,16.4-34,16.4c-35.62,0-47-16-47-16L846.05,65a65.83,65.83,0,0,0,2.43-17c0-9.57-7.29-20-7.29-20L781.28,57l-51.81-7s-14.05-7.94-38.06-5c-9.24,1.13-29.14,14-29.14,14s-4-7-4-20c0-8.5,4-19,4-19s-20.55-2.51-38,11c-13,10-24.29,19-24.29,19S581.31,69,485.77,69c-24.29,0-34-16.4-34-16.4S435.58,69,417.76,69c-35.62,0-46.95-16-46.95-16L246.12,65a65.83,65.83,0,0,0,2.43-17c0-9.57-7.28-20-7.28-20L181.35,57l-51.81-7s-14-7.94-38-5c-9.25,1.13-29.15,14-29.15,14s-4.05-7-4.05-20c0-8.5,4.05-19,4.05-19S41.79,17.49,24.29,31C11.33,41,0,50,0,50V276H1199.86V51.81C1198.47,56.56,1185.35,69,1085.7,69Z"/><path class="a" d="M1199.86,50v1.81A2.77,2.77,0,0,0,1199.86,50Z"/></svg>