<?xml version="1.0" encoding="utf-8"?>
<!-- Generator: Adobe Illustrator 25.0.0, SVG Export Plug-In . SVG Version: 6.00 Build 0)  -->
<svg version="1.1" id="Capa_1" xmlns="http://www.w3.org/2000/svg" xmlns:xlink="http://www.w3.org/1999/xlink" x="0px" y="0px"
	 viewBox="0 0 60 60" style="enable-background:new 0 0 60 60;" xml:space="preserve">
<style type="text/css">
	.st0{fill:#FFFFFF;}
</style>
<g>
	<path class="st0" d="M9.8,57.8c0,0,2.9,2.1,4.6,1.7c1.7-0.4,2.9-0.4,4.2-2.1c0,0,1.4,0.4,2.8,0c1.4-0.4,1.4-1.7,4.3-2.9
		c2.9-1.3,5.9-2.1,7.9-2.5s6.7-0.8,9.2-2.9c2.5-2.1,2.9-4.4,3.1-7.2s-2.7-6.2-6.1-7c-3.3-0.8-11.3-2.9-13.4-3.8
		c-2.1-0.8-5-2.9-5.9-3.3c-0.8-0.4-1.7-0.4-2.1-0.4s-1.4-1.9-4.1-1.8s-4.7,1.7-4.7,1.7s1.3,0.1,2.5,0.9c1.3,0.8,1.3,2.1,2.1,2.9
		c0.8,0.8,0.4,1.3,2.1,2.1s2.5,1.3,3.8,2.5s2.9,2.1,5.9,2.5c0,0-1.3,0.4-3.3,0.4S19.8,39,18.6,39s-5,0-7.1-0.4
		c-2.1-0.4-2.9,1.3-3.3,1.3c-0.4,0-0.8-0.8-2.1-0.4c-1.3,0.4-5.6,2.2-5.5,2.6c0.1,0.3,4.3,2.4,5.1,2.9c0.8,0.4,2.1,0,2.5,0.4
		c0.4,0.4,1.7,1.3,2.9,1.3s2.9-0.4,6.3-0.4s6.3,0,8.8,0.4c0,0-2.9,0.8-3.8,1.3c-0.8,0.4-1.3,1.3-2.5,2.1c-1.3,0.8-3.3,0.8-4.2,1.7
		c-0.8,0.8-0.8,2.1-0.8,2.5s-0.8,0-1.7,1.7C12.3,57.4,10.6,57.8,9.8,57.8z"/>
</g>
<g>
	<path class="st0" d="M28.6,28c0,0,2.5,1.8,4,1.4c1.4-0.4,2.5-0.4,3.6-1.8c0,0,1.2,0.4,2.4,0c1.2-0.4,1.2-1.4,3.8-2.5
		c2.5-1.1,5.1-1.8,6.9-2.2c1.8-0.4,5.8-0.7,8-2.5c2.2-1.8,2.5-3.8,2.7-6.2s-2.4-5.4-5.3-6.1s-9.8-2.5-11.6-3.3
		c-1.8-0.7-4.3-2.5-5.1-2.9s-1.4-0.4-1.8-0.4S34.9-0.1,32.6,0s-4.1,1.5-4.1,1.5s1.1,0.1,2.2,0.8s1.1,1.8,1.8,2.5
		c0.7,0.7,0.4,1.1,1.8,1.8c1.4,0.7,2.2,1.1,3.3,2.2s2.5,1.8,5.1,2.2c0,0-1.1,0.4-2.9,0.4c-1.8,0-2.5,0.4-3.6,0.4
		c-1.1,0-4.3,0-6.2-0.4c-1.8-0.4-2.5,1.1-2.9,1.1c-0.4,0-0.7-0.7-1.8-0.4c-1.1,0.4-4.8,1.9-4.8,2.2c0.1,0.3,3.7,2.1,4.4,2.5
		c0.7,0.4,1.8,0,2.2,0.4c0.4,0.4,1.4,1.1,2.5,1.1c1.1,0,2.5-0.4,5.4-0.4s5.4,0,7.6,0.4c0,0-2.5,0.7-3.3,1.1
		c-0.7,0.4-1.1,1.1-2.2,1.8c-1.1,0.7-2.9,0.7-3.6,1.4c-0.7,0.7-0.7,1.8-0.7,2.2s-0.7,0-1.4,1.4S29.3,28,28.6,28z"/>
</g>
</svg>
